<svg xmlns="http://www.w3.org/2000/svg" width="458" height="458" viewBox="0 0 458 458" fill="none">
<path fill-rule="evenodd" clip-rule="evenodd" d="M229 458C355.473 458 458 355.473 458 229C458 102.527 355.473 0 229 0C102.527 0 0 102.527 0 229C0 355.473 102.527 458 229 458ZM146.5 228C175.495 228 199 204.495 199 175.5C199 146.505 175.495 123 146.5 123C117.505 123 94 146.505 94 175.5C94 204.495 117.505 228 146.5 228ZM291.5 218C310.554 218 326 202.554 326 183.5C326 164.446 310.554 149 291.5 149C272.446 149 257 164.446 257 183.5C257 202.554 272.446 218 291.5 218Z" fill="#170404"/>
</svg>