<svg width="800" height="600" viewBox="0 0 800 600" fill="none" xmlns="http://www.w3.org/2000/svg">
<path d="M263 80H309L283 110C268.667 104.333 238 92.2 230 89C222 85.8 181.333 81.6667 162 80L97 67L56 187L71 201L107 245L293 206L376 187H448H506L544 254L581 236L602 217L615 187C630 181.667 660 170.4 660 168C660 165.6 695.333 173 713 177L705 227L685 281L636 318L581 337L531 330H506L474 318L436 297H409L376 318L328 343L299 374L175 311L156 324L122 343H76L56 374L47 459L76 485L175 416L201 478L248 496L322 425L376 435L397 488L436 447L487 410L531 400L566 459L581 473L597 459L648 435L669 410L718 425L724 511L755 523L777 467L736 359L743 330L755 311L761 261L770 196V151L761 110L724 80H615L462 60L422 72L393 80H376V72L448 47L591 60L736 67L782 110V187L788 245L782 304L755 359L761 400L788 467L761 530L718 523L713 442L669 425C659.667 436.333 640 459 636 459C631 459 590 485 581 485C573.8 485 562.667 480.333 558 478C553 463.667 542 433 538 425C534 417 502.333 415.667 487 416C474 430.333 447 460.6 443 467C439 473.4 404 495 387 505C381.333 489.667 369.2 456.6 366 447C362.8 437.4 339.333 435 328 435C316.333 447.333 292 473.2 288 478C284 482.8 264.333 502 255 511L189 485L175 435L122 467L71 496L34 459V410L47 359L71 330H122L132 311L175 297C193.333 308.667 236.6 335.6 263 350C289.4 364.4 298 356 299 350L328 318L359 304L387 281C394.667 278.667 411 274 415 274C420 274 465 297 474 304C483 311 503 318 531 318H581C611 318 624 302 636 297C648 292 649 287 660 281C668.8 276.2 675.667 261 678 254L696 187H660C653 187 629 201 624 206C619 211 610 236 597 245C584 254 544 274 538 274C533.2 274 522.667 248.667 518 236C510 222.667 492.6 196 487 196H427C409 196 392 201 387 201C382 201 309 214 293 217C277 220 243 233 230 236C217 239 180 245 175 245C171 245 121.333 255.667 97 261L71 227L47 206L42 182L56 135L71 80L90 52C105.667 54.6667 138.6 60 145 60C153 60 219 66 225 67C229.8 67.8 252.333 76 263 80Z" stroke="black"/>
</svg>
