<svg width="306" height="322" viewBox="0 0 306 322" fill="none" xmlns="http://www.w3.org/2000/svg">
<path id="Vector" d="M145 1V9M145 9H97V41M145 9H177V25H145V41H209V9H193V25M97 41H81V9H17V25M97 41V57H113V41H129V73H97V89M17 25H33V57H49V89H17V105M17 25V73M17 105H65V137H81V185H65V201H33V217H17V233H65V249H81V233H97V265M17 105V121M97 265H113V233H129V249H145V265H177V313H161V321M97 265H65V313H33V281H17V265H33V249H49V297M97 265V297H129V313H145V297H161V281H113M81 265V313H113M129 281V265M81 169H65V153H49V121H33V169H17V201H1V313H17V297M1 249H17M17 153H1V185H49V169M33 137H1V89M33 41H49V25H65V57H81M17 73H33M17 73H1V9M97 89H129V105H145V137H129V121H97V105H113M97 89H81M113 121V153H129V201H81V217H49M97 201V217H161V169M161 169H145V201M161 169H177V121H161V105M177 153H145M161 153V137M161 201H177V185H209V153H241V121H289V89M289 89H273V73H257M289 89H305V153H289V137H257V153H273V169M257 73V89M257 73V57H273V41H257V25H241V9H273V25H289V73H305V9H289M273 121V105H225V89H241V73H193V89H209V121H225V137H193M193 137V169M193 137V105H177V89H145V73H177V57M177 57H145M177 57H241V41H225V9M209 169H257V185H241V217H209M241 201H257V217H273V233H193V201H225V185M193 217H177V233H145M161 233V249H193V265H209M209 265V249H225V281H241V249H289V233H305V217H289V201H273V185H289V169H305V201M209 265V281H193V313H273V297H289V313H305V281H273M273 249V265H257V297H209M289 281V265H305V249M129 169H97V185H113M113 137H97V153M81 89V121M81 89V73H65V89M113 9V25H129" stroke="black" stroke-width="2" stroke-linecap="square" stroke-linejoin="round"/>
</svg>
